<svg id="Layer_1" data-name="Layer 1" xmlns="http://www.w3.org/2000/svg" viewBox="0 0 189.21 112.48"><defs><style>.cls-1{fill:#f5333f;}.cls-2{opacity:0.15;}.cls-3{fill:#231f20;}</style></defs><title>favicon</title><polygon class="cls-1" points="66.26 20.07 20.77 86.93 3.38 112.48 39.41 112.48 101.83 20.07 66.26 20.07"/><polygon class="cls-1" points="153.63 20.07 90.76 112.48 126.78 112.48 189.21 20.07 153.63 20.07"/><polygon class="cls-1" points="156.79 3.77 121.16 3.77 66.58 83.99 102.6 83.99 156.79 3.77"/><g class="cls-2"><polygon class="cls-3" points="65.31 18.27 66.26 18.27 97.12 18.27 98.45 16.3 62.88 16.3 0 108.71 3.77 108.71 64.77 19.06 65.31 18.27"/><polygon class="cls-3" points="150.25 16.3 87.38 108.71 91.15 108.71 152.15 19.06 152.68 18.27 153.63 18.27 184.5 18.27 185.83 16.3 150.25 16.3"/><polygon class="cls-3" points="120.21 1.97 121.16 1.97 152.08 1.97 153.41 0 117.78 0 63.2 80.22 66.97 80.22 119.67 2.76 120.21 1.97"/></g></svg>