<svg id="Layer_1" data-name="Layer 1" xmlns="http://www.w3.org/2000/svg" viewBox="0 0 413.58 108.71"><defs><style>.cls-1,.cls-2{fill:#231f20;}.cls-2{font-size:26.82px;font-family:BankGothic-Medium, BankGothic Medium;font-weight:500;letter-spacing:0.11em;}.cls-3{fill:#131718;}</style></defs><title>Logo_Plain_Black</title><polyline class="cls-1" points="0 108.71 36.02 108.71 98.45 16.3 62.88 16.3 0 108.71"/><polygon class="cls-1" points="150.25 16.3 87.38 108.71 123.4 108.71 185.83 16.3 150.25 16.3"/><polygon class="cls-1" points="153.41 0 117.78 0 63.2 80.22 99.22 80.22 153.41 0"/><text class="cls-2" transform="translate(211.24 59.9)">STUDIO</text><polygon class="cls-3" points="199.78 83.36 199.78 78.55 209.65 78.55 209.65 74.4 199.78 74.4 199.78 70.13 216.7 70.13 216.7 65.98 194.3 65.98 194.3 87.89 216.9 87.89 216.9 83.36 199.78 83.36"/><path class="cls-3" d="M331.09,446.8h2.12c3.36,0,5.06-1.48,5.06-4.39v-5c0-2.92-1.7-4.4-5.06-4.4H314.63v21.9H320V446.8h4.38l8.63,8.09H341ZM320,437.14h11a3.24,3.24,0,0,1,1.49.22,1.32,1.32,0,0,1,.5,1.24v2.59c0,.64-.16,1.05-.49,1.24a3.33,3.33,0,0,1-1.5.22H320Z" transform="translate(-90.54 -367)"/><polygon class="cls-3" points="266.65 76.31 281.19 65.98 273.11 65.98 261.58 74.65 261.58 65.98 256.06 65.98 256.06 87.89 261.58 87.89 261.58 78.72 274.06 87.89 282.93 87.89 266.65 76.31"/><path class="cls-3" d="M401.53,433l-9.75,12.78L381.83,433h-4.4v21.9H382V441.41c0-.32,0-.67,0-1a12.48,12.48,0,0,0,.74,1.1l8.12,10.84H392l8.12-10.8a10.68,10.68,0,0,0,.68-1.11,9.9,9.9,0,0,0-.05,1v13.48h5.1V433Z" transform="translate(-90.54 -367)"/><path class="cls-3" d="M427.87,433h-5.1l-12.39,21.9h5.55l2.49-4.69h13.26l2.57,4.69h6.18Zm1.47,12.86h-8.53l4.34-7.93Z" transform="translate(-90.54 -367)"/><path class="cls-3" d="M465.16,433v11.49c0,.41,0,1.37.16,3-.52-.53-1.19-1.14-2-1.82l-15.06-12.61-.06-.06h-3.75v21.9h5V443.07c0-.73,0-1.63-.14-2.68a15.14,15.14,0,0,0,1.31,1.21l15.72,13.23.07.06h3.74V433Z" transform="translate(-90.54 -367)"/><path class="cls-3" d="M499.14,433v11.49c0,.41.06,1.4.17,3a26.25,26.25,0,0,0-2-1.82l-15.05-12.61-.07-.06h-3.74v21.9h5V443.07c0-.73-.05-1.63-.14-2.68a15,15,0,0,0,1.3,1.21l15.72,13.23.07.06h3.75V433Z" transform="translate(-90.54 -367)"/><polygon class="cls-3" points="157.38 84.26 157.38 87.89 161.9 87.89 161.9 78.38 157.38 84.26"/><path class="cls-3" d="M272,433l-9.74,12.78-5.1-6.54L254.28,443l7,9.33h1.25l8.12-10.8a9.35,9.35,0,0,0,.67-1.11c0,.39,0,.73,0,1v13.48h5.1V433Z" transform="translate(-90.54 -367)"/><path class="cls-1" d="M252.44,441.57v-.16c0-.32,0-.66,0-1,.12.2.28.42.43.63l2.74-3.82-3.27-4.2h-4.39v14.88Z" transform="translate(-90.54 -367)"/></svg>